<?xml version="1.0" encoding="UTF-8" standalone="no"?>
<svg width="1600" height="600" viewBox="0 0 800 300" xmlns="http://www.w3.org/2000/svg">
  <defs>
    <linearGradient id="bg" x1="0" y1="0" x2="1" y2="1">
      <stop offset="0%" stop-color="#F6FAFF"/>
      <stop offset="100%" stop-color="#E5F0FF"/>
    </linearGradient>
    <linearGradient id="Rim" x1="0" y1="0" x2="1" y2="1">
      <stop offset="0%" stop-color="#FDBA74"/>
      <stop offset="100%" stop-color="#F97316"/>
    </linearGradient>
    <radialGradient id="Field" cx="50%" cy="40%" r="70%">
      <stop offset="0%" stop-color="#E5E7EB"/>
      <stop offset="60%" stop-color="#9CA3AF"/>
      <stop offset="100%" stop-color="#374151"/>
    </radialGradient>
    <linearGradient id="WebGPU" x1="0" y1="0" x2="1" y2="1">
      <stop offset="0%" stop-color="#60A5FA"/>
      <stop offset="100%" stop-color="#1D4ED8"/>
    </linearGradient>
    <linearGradient id="Metal" x1="0" y1="0" x2="1" y2="1">
      <stop offset="0%" stop-color="#CFFAE0"/>
      <stop offset="100%" stop-color="#34D399"/>
    </linearGradient>
    <linearGradient id="Vulkan" x1="0" y1="0" x2="1" y2="1">
      <stop offset="0%" stop-color="#F87171"/>
      <stop offset="100%" stop-color="#B91C1C"/>
    </linearGradient>
  </defs>

  <rect x="0" y="0" width="800" height="300" fill="url(#bg)"/>
  <g transform="translate(220,30)">
    <g>
      <circle cx="60" cy="60" r="50" fill="url(#Rim)"/>
      <circle cx="60" cy="60" r="44" fill="url(#Field)"/>
      <path d="M60 28 L90 60 L60 92 L30 60 Z" fill="#0B1220" opacity="0.75"/>
      <path d="M60 28 L90 60 L60 60 Z" fill="url(#WebGPU)" opacity="0.95"/>
      <path d="M60 28 L60 60 L30 60 Z" fill="url(#Metal)" opacity="0.95"/>
      <path d="M60 60 L90 60 L60 92 Z" fill="url(#Vulkan)" opacity="0.95"/>
    </g>
    <g font-family="Inter, system-ui, -apple-system, Segoe UI, Roboto, Arial" font-weight="900" font-size="40">
      <text x="160" y="76" fill="#4B5563">Vertex</text>
      <text x="260" y="76" fill="#F97316">Nova</text>
    </g>
  </g>
</svg>